<svg width="22" height="22" viewBox="0 0 22 22" fill="none" xmlns="http://www.w3.org/2000/svg">
<path d="M5.09659 20.5249C5.01655 20.5249 4.93651 20.4849 4.85647 20.4449C4.7364 20.3648 4.65636 20.1647 4.69638 20.0046L6.45731 13.4412L1.17452 9.15892C1.01443 9.07887 0.974414 8.87877 1.01443 8.71868C1.05446 8.5586 1.21454 8.43853 1.37463 8.43853L8.17822 8.07834L10.6195 1.71498C10.6996 1.59492 10.8596 1.47485 11.0197 1.47485C11.1798 1.47485 11.3399 1.59492 11.3799 1.71498L13.8212 8.07834L20.6248 8.43853C20.7849 8.43853 20.945 8.5586 20.985 8.71868C21.025 8.87877 20.985 9.03885 20.8649 9.15892L15.5821 13.4412L17.3431 20.0046C17.3831 20.1647 17.3431 20.3248 17.183 20.4449C17.0629 20.5249 16.8628 20.5649 16.7427 20.4449L11.0197 16.7629L5.2967 20.4449C5.21666 20.5249 5.17664 20.5249 5.09659 20.5249Z" stroke="#CFCFCF" stroke-width="2"/>
</svg>
