<svg width="19" height="26" viewBox="0 0 19 26" fill="none" xmlns="http://www.w3.org/2000/svg">
<path d="M18.6932 24.6194L15.3974 17.6477C15.3316 17.5086 15.2177 17.402 15.081 17.3439L13.4413 16.6139L16.2824 11.8523C16.2892 11.8409 16.2956 11.8293 16.3017 11.8175C16.8665 10.715 17.153 9.52364 17.153 8.27672C17.153 6.17911 16.3304 4.21261 14.8368 2.73951C13.3434 1.26676 11.365 0.471299 9.26615 0.500792C7.22768 0.529063 5.30834 1.34786 3.86161 2.80645C2.41503 4.26495 1.61171 6.19088 1.5996 8.2296C1.59218 9.47545 1.88657 10.7161 2.45073 11.8174C2.45678 11.8292 2.46318 11.8408 2.46996 11.8523L5.31098 16.6138L3.66186 17.3478C3.52695 17.4078 3.41806 17.5142 3.35497 17.6477L0.0592228 24.6194C-0.0510799 24.8526 -0.00454671 25.1298 0.175824 25.3143C0.356147 25.4987 0.632123 25.5515 0.867816 25.4466L4.99662 23.6084L9.12543 25.4466C9.28515 25.5177 9.46752 25.5177 9.62724 25.4466L13.756 23.6084L17.8849 25.4466C17.9655 25.4825 18.0509 25.5 18.1356 25.5C18.2982 25.5 18.4582 25.4356 18.5768 25.3143C18.7571 25.1298 18.8036 24.8527 18.6932 24.6194ZM3.53998 11.2376C3.06489 10.3034 2.82714 9.294 2.83344 8.23697C2.85434 4.7004 5.74779 1.78336 9.28334 1.73438C11.0493 1.71065 12.7141 2.37887 13.9705 3.61798C15.2272 4.85738 15.9193 6.51187 15.9193 8.27677C15.9193 9.31968 15.6815 10.3157 15.2126 11.2376L9.90604 20.1315C9.74403 20.403 9.48163 20.4323 9.37631 20.4323C9.27094 20.4323 9.00854 20.403 8.84657 20.1315L3.53998 11.2376ZM14.0068 22.3697C13.8471 22.2986 13.6647 22.2986 13.505 22.3697L9.37621 24.2079L5.2474 22.3697C5.08769 22.2986 4.90531 22.2986 4.7456 22.3697L1.88535 23.6431L4.37255 18.3819L5.94765 17.681L7.7869 20.7636C8.12401 21.3287 8.71815 21.666 9.37611 21.666C10.0341 21.666 10.6282 21.3287 10.9653 20.7637L12.8046 17.681L14.3798 18.3822L16.8669 23.6432L14.0068 22.3697Z" fill="black"/>
<path d="M9.37646 5.46129C7.82402 5.46129 6.56108 6.72423 6.56108 8.27662C6.56108 9.82901 7.82402 11.092 9.37646 11.092C10.9289 11.092 12.1918 9.82901 12.1918 8.27662C12.1918 6.72423 10.9289 5.46129 9.37646 5.46129ZM9.37646 9.85826C8.50435 9.85831 7.79478 9.14884 7.79478 8.27662C7.79478 7.4045 8.5043 6.69498 9.37646 6.69498C10.2486 6.69498 10.9581 7.4045 10.9581 8.27662C10.9581 9.14874 10.2486 9.85826 9.37646 9.85826Z" fill="black"/>
</svg>
