<svg width="23" height="26" viewBox="0 0 23 26" fill="none" xmlns="http://www.w3.org/2000/svg">
<path d="M9.6175 22.5512C9.42839 22.3601 9.18869 22.2376 8.92839 22.1957L8.94748 18.9022C8.95159 18.227 8.6926 17.5907 8.21814 17.1104L5.02241 13.8753C4.70488 13.5539 4.2812 13.3755 3.82935 13.3729C3.6108 13.3706 3.40225 13.4109 3.20636 13.487L3.22564 10.4376C3.22818 10.0121 3.06495 9.61113 2.76593 9.3084C2.46691 9.00566 2.06789 8.8376 1.64245 8.83496C1.63908 8.83496 1.63576 8.83496 1.63239 8.83496C1.21071 8.83496 0.813548 8.998 0.513257 9.29463C0.210524 9.59365 0.0424101 9.99262 0.0397734 10.4181L2.7464e-05 16.7674C-0.0023651 17.1688 0.151638 17.5474 0.433912 17.8332L3.50626 20.9434L3.49947 22.1728C2.90006 22.2632 2.43703 22.7803 2.43317 23.4048L2.42389 24.9231C2.42208 25.2179 2.65963 25.4583 2.95441 25.4602C2.95553 25.4602 2.95665 25.4602 2.95777 25.4602C3.25103 25.4602 3.4897 25.2233 3.49151 24.9297L3.50079 23.4114C3.50142 23.3092 3.58487 23.2263 3.68702 23.2263C3.68726 23.2263 3.68756 23.2263 3.6878 23.2263L8.72722 23.2471C8.79441 23.2473 8.83845 23.2818 8.85876 23.3023C8.87903 23.3228 8.91311 23.3672 8.91267 23.4345L8.9033 24.9629C8.90149 25.2577 9.13904 25.4981 9.43376 25.5C9.43489 25.5 9.43601 25.5 9.43713 25.5C9.73039 25.5 9.96901 25.2631 9.97087 24.9695L9.98024 23.4411C9.98229 23.1056 9.85349 22.7897 9.6175 22.5512ZM7.86092 22.1759L4.56709 22.1623L4.575 20.7283C4.57578 20.5869 4.52041 20.451 4.42095 20.3503L1.19343 17.083C1.11154 17.0001 1.06682 16.8903 1.06755 16.7739L1.1073 10.4246C1.10818 10.2843 1.16359 10.1527 1.26345 10.0541C1.3633 9.95551 1.49518 9.89916 1.63591 9.90253C1.77619 9.90341 1.90783 9.95883 2.00641 10.0587C2.105 10.1585 2.15885 10.2908 2.15802 10.431L2.12892 15.0351C2.12887 15.0447 2.12956 15.0542 2.13004 15.0637C2.13004 15.4932 2.29201 15.9229 2.61681 16.2517L4.63428 18.294C4.73867 18.3997 4.87637 18.4527 5.01406 18.4527C5.14961 18.4527 5.28515 18.4014 5.38916 18.2986C5.59887 18.0914 5.60097 17.7535 5.39375 17.5437L3.37628 15.5014C3.13502 15.2571 3.13731 14.8621 3.38126 14.6207C3.38131 14.6206 3.38131 14.6206 3.38136 14.6206C3.49884 14.5043 3.6543 14.4405 3.81949 14.4405C3.82066 14.4405 3.82193 14.4405 3.82315 14.4405C3.9897 14.4415 4.1458 14.5072 4.26284 14.6256L7.45858 17.8607C7.73265 18.1381 7.88226 18.5057 7.87986 18.8959L7.86092 22.1759Z" fill="black"/>
<path d="M22.081 16.7672L22.0413 10.418C22.0386 9.99256 21.8705 9.59359 21.5678 9.29457C21.2651 8.99555 20.8644 8.83412 20.4386 8.8349C20.0131 8.83754 19.6141 9.0056 19.3151 9.30834C19.0161 9.61107 18.8528 10.0121 18.8554 10.4377L18.8747 13.487C18.6788 13.4108 18.4704 13.3723 18.2517 13.3728C17.7999 13.3755 17.3762 13.5539 17.0586 13.8753L13.8629 17.1104C13.3885 17.5907 13.1295 18.227 13.1336 18.9019L13.1527 22.1956C12.8923 22.2375 12.6527 22.3601 12.4637 22.551C12.2277 22.7894 12.0989 23.1054 12.1009 23.4409L12.1103 24.9693C12.1121 25.263 12.3507 25.4997 12.644 25.4997C12.6451 25.4997 12.6463 25.4997 12.6474 25.4997C12.9422 25.4979 13.1797 25.2575 13.1779 24.9626L13.1685 23.4343C13.168 23.3669 13.2021 23.3225 13.2224 23.302C13.2427 23.2815 13.2867 23.2471 13.354 23.2468L18.3935 23.2261C18.3937 23.2261 18.394 23.2261 18.3942 23.2261C18.4963 23.2261 18.5798 23.309 18.5804 23.4112L18.5897 24.9295C18.5915 25.2232 18.8301 25.46 19.1234 25.46C19.1246 25.46 19.1257 25.46 19.1268 25.46C19.4216 25.4581 19.6592 25.2177 19.6573 24.9228L19.648 23.4045C19.6442 22.78 19.1811 22.2629 18.5817 22.1725L18.5749 20.9431L21.6472 17.833C21.9295 17.5474 22.0835 17.1689 22.081 16.7672ZM20.8877 17.0829L17.6601 20.3502C17.5607 20.4508 17.5053 20.5868 17.5061 20.7282L17.514 22.1622L14.2201 22.1757L14.2011 18.8956C14.1988 18.5056 14.3484 18.1381 14.6224 17.8607L17.8181 14.6256C17.9352 14.5071 18.0913 14.4414 18.2579 14.4404C18.2591 14.4404 18.2603 14.4404 18.2615 14.4404C18.4267 14.4404 18.5821 14.5043 18.6997 14.6206C18.8048 14.7247 18.868 14.8606 18.8811 15.007C18.8971 15.1836 18.8387 15.3657 18.7047 15.5014L16.6872 17.5437C16.48 17.7535 16.4821 18.0914 16.6918 18.2986C16.7959 18.4014 16.9314 18.4527 17.0669 18.4527C17.2046 18.4527 17.3423 18.3997 17.4467 18.294L19.4642 16.2517C19.7937 15.9181 19.9556 15.4807 19.9509 15.045C19.9516 15.0425 19.9521 15.0393 19.952 15.0351L19.9229 10.4311C19.9221 10.2909 19.9759 10.1586 20.0745 10.0587C20.1732 9.95887 20.3048 9.90345 20.4451 9.90257C20.4462 9.90257 20.4473 9.90257 20.4484 9.90257C20.5875 9.90257 20.7185 9.95633 20.8176 10.0542C20.9174 10.1528 20.9728 10.2844 20.9737 10.4247L21.0135 16.7739C21.0142 16.8902 20.9695 17 20.8877 17.0829Z" fill="black"/>
<path d="M15.4948 9.68335C15.225 8.04186 14.3386 6.39997 12.9988 5.06023C12.4839 4.54529 11.9207 4.09393 11.325 3.71874C11.151 3.60922 10.9297 3.60927 10.7559 3.71883C10.1595 4.09476 9.59636 4.54612 9.08225 5.06023C7.74241 6.40007 6.85604 8.04181 6.58636 9.68335C6.3059 11.39 6.71898 12.8972 7.7494 13.9274C8.24646 14.4244 8.85632 14.7791 9.56208 14.9817C9.85651 15.0662 10.1652 15.1226 10.484 15.1515V16.6418C10.484 16.9366 10.723 17.1756 11.0178 17.1756C11.3127 17.1756 11.5516 16.9366 11.5516 16.6418V15.1468C11.8628 15.1174 12.1787 15.0645 12.4958 14.988C12.503 14.9862 12.5103 14.9843 12.5175 14.9822C13.2243 14.7797 13.8348 14.4248 14.3322 13.9274C15.3624 12.8971 15.7753 11.3899 15.4948 9.68335ZM13.5772 13.1724C13.212 13.5377 12.76 13.8002 12.234 13.9528C12.0043 14.0078 11.7763 14.0477 11.5516 14.0733V13.1683L13.3934 11.3265C13.6019 11.1181 13.6019 10.7801 13.3934 10.5716C13.185 10.3632 12.847 10.3632 12.6385 10.5716L11.5516 11.6585V9.96338L12.3943 9.12061C12.6028 8.91216 12.6028 8.57418 12.3943 8.36568C12.1859 8.15729 11.8479 8.15729 11.6394 8.36568L11.5516 8.45352V7.1026C11.5516 6.80783 11.3126 6.56882 11.0178 6.56882C10.723 6.56882 10.484 6.80783 10.484 7.1026V8.45352L10.3962 8.36568C10.1877 8.15729 9.84972 8.15729 9.64123 8.36568C9.43278 8.57413 9.43278 8.91212 9.64123 9.12061L10.484 9.96338V11.6585L9.39709 10.5716C9.18864 10.3632 8.85066 10.3632 8.64216 10.5716C8.43372 10.78 8.43372 11.118 8.64216 11.3265L10.484 13.1683V14.078C10.2668 14.0533 10.0569 14.013 9.85671 13.9554C9.32688 13.8034 8.87185 13.54 8.50427 13.1723C7.72366 12.392 7.41668 11.2143 7.63987 9.85645C7.87366 8.4335 8.65408 6.99826 9.83722 5.81511C10.2124 5.43997 10.6161 5.10276 11.0407 4.8097C11.4648 5.10227 11.8684 5.43948 12.244 5.81511C13.4272 6.99821 14.2076 8.43346 14.4414 9.85645C14.6645 11.2143 14.3577 12.392 13.5772 13.1724Z" fill="black"/>
<path d="M11.0178 0.5C10.723 0.5 10.484 0.739012 10.484 1.03379V2.07475C10.484 2.36952 10.723 2.60853 11.0178 2.60853C11.3126 2.60853 11.5516 2.36952 11.5516 2.07475V1.03379C11.5516 0.739012 11.3126 0.5 11.0178 0.5Z" fill="black"/>
<path d="M5.25169 6.77319H4.21073C3.9159 6.77319 3.67694 7.01221 3.67694 7.30698C3.67694 7.60175 3.9159 7.84077 4.21073 7.84077H5.25169C5.54651 7.84077 5.78547 7.60175 5.78547 7.30698C5.78547 7.01221 5.54651 6.77319 5.25169 6.77319Z" fill="black"/>
<path d="M17.8248 6.77319H16.7839C16.4891 6.77319 16.2501 7.01221 16.2501 7.30698C16.2501 7.60175 16.4891 7.84077 16.7839 7.84077H17.8248C18.1196 7.84077 18.3586 7.60175 18.3586 7.30698C18.3586 7.01221 18.1196 6.77319 17.8248 6.77319Z" fill="black"/>
<path d="M7.69539 3.22976L6.95936 2.49373C6.75091 2.28533 6.41293 2.28533 6.20443 2.49373C5.99598 2.70218 5.99598 3.04016 6.20443 3.24866L6.94051 3.98469C7.04476 4.08889 7.18138 4.14104 7.31795 4.14104C7.45452 4.14104 7.59119 4.08889 7.69539 3.98469C7.90383 3.77624 7.90383 3.43826 7.69539 3.22976Z" fill="black"/>
<path d="M15.8311 2.4937C15.6227 2.2853 15.2847 2.2853 15.0762 2.4937L14.3402 3.22978C14.1317 3.43823 14.1317 3.77621 14.3402 3.98471C14.4444 4.08886 14.5811 4.14101 14.7177 4.14101C14.8542 4.14101 14.9909 4.08886 15.0951 3.98466L15.8311 3.24863C16.0396 3.04023 16.0396 2.7022 15.8311 2.4937Z" fill="black"/>
</svg>
