<svg width="25" height="26" viewBox="0 0 25 26" fill="none" xmlns="http://www.w3.org/2000/svg">
<path d="M22.3958 0.5H2.60415C1.16665 0.501709 0.00170898 1.66665 0 3.10415V22.8958C0.00170898 24.3333 1.16665 25.4983 2.60415 25.5H22.3958C23.8333 25.4983 24.9982 24.3333 25 22.8958V3.10415C24.9983 1.66665 23.8333 0.501709 22.3958 0.5ZM23.9583 22.8958C23.9583 23.7588 23.2588 24.4583 22.3958 24.4583H2.60415C1.74121 24.4583 1.04165 23.7588 1.04165 22.8958V3.10415C1.04165 2.24121 1.74121 1.54165 2.60415 1.54165H22.3958C23.2587 1.54165 23.9583 2.24121 23.9583 3.10415V22.8958H23.9583Z" fill="black"/>
<path d="M8.33335 4.66666H4.16665C3.879 4.66666 3.6458 4.89986 3.6458 5.18751V9.35416C3.6458 9.6418 3.879 9.87501 4.16665 9.87501H8.3333C8.62095 9.87501 8.85415 9.6418 8.85415 9.35416V5.18751C8.85415 4.89986 8.621 4.66666 8.33335 4.66666ZM7.8125 8.83336H4.6875V5.70836H7.8125V8.83336Z" fill="black"/>
<path d="M8.33335 16.125H4.16665C3.879 16.125 3.6458 16.3582 3.6458 16.6458V20.8125C3.6458 21.1001 3.879 21.3333 4.16665 21.3333H8.3333C8.62095 21.3333 8.85415 21.1001 8.85415 20.8125V16.6458C8.85415 16.3582 8.621 16.125 8.33335 16.125ZM7.8125 20.2917H4.6875V17.1667H7.8125V20.2917Z" fill="black"/>
<path d="M20.8334 4.66666H16.6667C16.3791 4.66666 16.1459 4.89986 16.1459 5.18751V9.35416C16.1459 9.6418 16.3791 9.87501 16.6667 9.87501H20.8334C21.121 9.87501 21.3542 9.6418 21.3542 9.35416V5.18751C21.3542 4.89986 21.121 4.66666 20.8334 4.66666ZM20.3125 8.83336H17.1875V5.70836H20.3125V8.83336Z" fill="black"/>
<path d="M6.7708 6.75H5.72915V7.79165H6.7708V6.75Z" fill="black"/>
<path d="M6.7708 18.2083H5.72915V19.25H6.7708V18.2083Z" fill="black"/>
<path d="M19.2708 6.75H18.2291V7.79165H19.2708V6.75Z" fill="black"/>
<path d="M21.3541 17.6875H15.1041V18.7292H20.8333V20.2917H17.1875V21.3333H21.3541C21.6418 21.3333 21.875 21.1001 21.875 20.8125V18.2083C21.875 17.9207 21.6418 17.6875 21.3541 17.6875Z" fill="black"/>
<path d="M14.0625 17.6875H13.0209V21.3333H14.0625V17.6875Z" fill="black"/>
<path d="M16.1458 20.2917H15.1041V21.3333H16.1458V20.2917Z" fill="black"/>
<path d="M14.5834 4.66666H12.5C12.2124 4.66666 11.9792 4.89986 11.9792 5.18751V7.27086H10.9375V4.66666H9.89585V7.79166C9.89585 8.0793 10.1291 8.31251 10.4167 8.31251H12.5C12.7876 8.31251 13.0209 8.0793 13.0209 7.79166V5.70831H14.0625V8.31251H15.1042V5.18751C15.1042 4.89986 14.871 4.66666 14.5834 4.66666Z" fill="black"/>
<path d="M15.1042 13V9.875H14.0625V13.5208C14.0625 13.8085 14.2957 14.0417 14.5833 14.0417H21.3542V13H15.1042Z" fill="black"/>
<path d="M9.89585 9.87499V10.9166H8.33335V11.9583H10.4167C10.7043 11.9583 10.9376 11.7251 10.9376 11.4374V9.87494H9.89585V9.87499Z" fill="black"/>
<path d="M5.20835 10.9167H3.64585V11.9583H5.20835V10.9167Z" fill="black"/>
<path d="M7.29165 10.9167H6.25V11.9583H7.29165V10.9167Z" fill="black"/>
<path d="M21.3542 10.9167H20.3125V11.9583H21.3542V10.9167Z" fill="black"/>
<path d="M19.2709 10.9167H16.1459V11.9583H19.2709V10.9167Z" fill="black"/>
<path d="M10.9375 15.6042C10.6499 15.6042 10.4166 15.8374 10.4166 16.125V21.3334H11.4583V16.6459H21.875V15.6042H10.9375V15.6042Z" fill="black"/>
<path d="M13.0208 9.875H11.9791V12.4792H13.0208V9.875Z" fill="black"/>
<path d="M9.375 13H3.64585V14.0417H8.8542V15.0833H9.89585V13.5208C9.89585 13.2332 9.66265 13 9.375 13Z" fill="black"/>
<path d="M13.0208 13.5208H11.9791V14.5625H13.0208V13.5208Z" fill="black"/>
</svg>
