<svg width="25" height="16" viewBox="0 0 25 16" fill="none" xmlns="http://www.w3.org/2000/svg">
<path d="M24.5946 6.82298C23.1915 5.02402 21.3741 3.53598 19.3389 2.51988C17.2614 1.48262 15.0264 0.944443 12.6932 0.91622C12.629 0.914462 12.371 0.914462 12.3067 0.91622C9.97362 0.944491 7.73857 1.48262 5.66104 2.51988C3.62584 3.53598 1.80851 5.02397 0.405394 6.82298C-0.135131 7.516 -0.135131 8.48401 0.405394 9.17703C1.80846 10.976 3.62584 12.464 5.66104 13.4801C7.73857 14.5174 9.97357 15.0556 12.3067 15.0838C12.371 15.0855 12.629 15.0855 12.6932 15.0838C15.0263 15.0555 17.2614 14.5174 19.3389 13.4801C21.3741 12.464 23.1915 10.976 24.5946 9.17703C25.1351 8.48391 25.1351 7.516 24.5946 6.82298ZM6.11538 12.5702C4.215 11.6214 2.51784 10.2318 1.20734 8.55154C0.954073 8.22679 0.954073 7.77322 1.20734 7.44847C2.51779 5.76825 4.21495 4.37861 6.11538 3.42978C6.65513 3.16035 7.20629 2.92734 7.76767 2.73008C6.32344 4.02832 5.41353 5.90975 5.41353 7.99998C5.41353 10.0903 6.32349 11.9719 7.76786 13.2701C7.20649 13.0728 6.65517 12.8397 6.11538 12.5702ZM12.5 14.0694C9.15326 14.0694 6.43052 11.3467 6.43052 7.99993C6.43052 4.65317 9.15326 1.93047 12.5 1.93047C15.8468 1.93047 18.5695 4.65322 18.5695 7.99998C18.5695 11.3467 15.8468 14.0694 12.5 14.0694ZM23.7927 8.55149C22.4823 10.2317 20.7851 11.6214 18.8847 12.5702C18.3456 12.8393 17.7947 13.0713 17.234 13.2684C18.6773 11.9702 19.5865 10.0893 19.5865 7.99993C19.5865 5.90941 18.6764 4.02773 17.2319 2.72949C17.7934 2.92681 18.3448 3.16011 18.8847 3.42969C20.7851 4.37851 22.4823 5.76815 23.7928 7.44837C24.046 7.77317 24.046 8.22674 23.7927 8.55149Z" fill="black"/>
<path d="M12.5001 5.40253C11.0679 5.40253 9.90272 6.56771 9.90272 7.99993C9.90272 9.43215 11.0679 10.5973 12.5001 10.5973C13.9323 10.5973 15.0975 9.43215 15.0975 7.99993C15.0976 6.56771 13.9324 5.40253 12.5001 5.40253ZM12.5001 9.58039C11.6287 9.58039 10.9197 8.87146 10.9197 7.99993C10.9197 7.12845 11.6286 6.41952 12.5001 6.41952C13.3716 6.41952 14.0805 7.12845 14.0805 7.99993C14.0806 8.87146 13.3716 9.58039 12.5001 9.58039Z" fill="black"/>
</svg>
