<svg width="25" height="26" viewBox="0 0 25 26" fill="none" xmlns="http://www.w3.org/2000/svg">
<path d="M22.0468 19.5944C21.442 19.5944 20.8793 19.7775 20.4106 20.0907L17.2342 16.9138C17.3297 16.7857 17.4192 16.6518 17.5004 16.5113C18.6222 14.5681 17.9541 12.0745 16.0109 10.9526C15.8704 10.8714 15.726 10.8004 15.5792 10.737L16.7417 6.39794C16.806 6.40218 16.8705 6.40438 16.9352 6.40438C17.4358 6.40438 17.9428 6.27714 18.4066 6.00931C19.8166 5.1952 20.3014 3.38573 19.4874 1.97573C18.6733 0.56572 16.8639 0.0810043 15.4538 0.894968C14.0437 1.70908 13.5589 3.51855 14.373 4.92855C14.6754 5.45224 15.1153 5.84764 15.6209 6.09696L14.4586 10.4348C13.951 10.3742 13.4316 10.4097 12.9229 10.5461C11.873 10.8274 10.9955 11.5007 10.452 12.442C9.99553 13.2327 9.83547 14.1146 9.93708 14.9581L5.59935 16.1204C5.34378 15.6013 4.94085 15.1692 4.42855 14.8734C3.74549 14.4791 2.94984 14.3742 2.18793 14.5784C1.42611 14.7825 0.789298 15.2711 0.395011 15.9541C-0.41905 17.3642 0.0657636 19.1736 1.47577 19.9877C1.93964 20.2555 2.44647 20.3828 2.94715 20.3828C3.96834 20.3828 4.96307 19.8531 5.50931 18.9069C5.80511 18.3945 5.93802 17.8187 5.89979 17.2414L10.2375 16.0792C10.5713 16.8605 11.1508 17.5443 11.9415 18.0008C12.5686 18.3628 13.2643 18.5478 13.9695 18.5478C14.3229 18.5478 14.6789 18.5012 15.0294 18.4073C15.538 18.271 16.0056 18.042 16.4149 17.7359L19.5899 20.9113C19.2768 21.3799 19.0939 21.9426 19.0939 22.5472C19.0939 24.1754 20.4185 25.5 22.0466 25.5C23.6748 25.5 24.9994 24.1754 24.9994 22.5472C24.9995 20.9191 23.6749 19.5944 22.0468 19.5944ZM15.3781 4.34833C14.884 3.49257 15.1783 2.39423 16.0341 1.90009C16.89 1.40595 17.9883 1.70044 18.4824 2.55615C18.9765 3.41196 18.6822 4.51029 17.8263 5.00438C16.9705 5.49848 15.8721 5.20404 15.3781 4.34833ZM4.50443 18.3267C4.01034 19.1824 2.91205 19.4768 2.05619 18.9827C1.20033 18.4886 0.906094 17.3903 1.40019 16.5345C1.63954 16.1199 2.02606 15.8233 2.48842 15.6994C2.95077 15.5756 3.43382 15.6391 3.84842 15.8785C4.2619 16.1172 4.55789 16.5023 4.68241 16.9632C4.6827 16.9644 4.68289 16.9656 4.68314 16.9668C4.68348 16.9681 4.68402 16.9694 4.68436 16.9707C4.80692 17.4319 4.7431 17.9133 4.50443 18.3267ZM16.4952 15.9312C16.1068 16.6039 15.4795 17.0853 14.7291 17.2864C13.9785 17.4875 13.1947 17.3843 12.5218 16.9958C11.8489 16.6074 11.3677 15.9801 11.1666 15.2297C10.9655 14.4791 11.0687 13.6953 11.4571 13.0224C11.8456 12.3495 12.4729 11.8682 13.2234 11.6672C13.4739 11.6001 13.7282 11.5668 13.981 11.5668C14.2309 11.5668 14.4793 11.5995 14.7208 11.6639C14.7237 11.6647 14.7264 11.6659 14.7294 11.6667C14.7313 11.6671 14.7331 11.6673 14.735 11.6678C14.9755 11.7332 15.2091 11.8299 15.4306 11.9578C16.1035 12.3463 16.5847 12.9736 16.7858 13.724C16.9869 14.4745 16.8838 15.2583 16.4952 15.9312ZM22.0468 24.3395C21.0585 24.3395 20.2545 23.5355 20.2545 22.5472C20.2545 21.5589 21.0585 20.7549 22.0468 20.7549C23.035 20.7549 23.8391 21.5588 23.8391 22.5472C23.839 23.5355 23.035 24.3395 22.0468 24.3395Z" fill="black"/>
<path d="M13.9795 12.4379C13.2519 12.4379 12.5742 12.8285 12.211 13.4575C12.0508 13.735 12.1458 14.0899 12.4234 14.2502C12.5148 14.3029 12.6145 14.328 12.7129 14.328C12.9134 14.328 13.1085 14.2239 13.216 14.0378C13.3725 13.7668 13.665 13.5984 13.9794 13.5984C14.2998 13.5984 14.5596 13.3385 14.5596 13.0181C14.5598 12.6976 14.3 12.4379 13.9795 12.4379Z" fill="black"/>
</svg>
