<svg width="24" height="26" viewBox="0 0 24 26" fill="none" xmlns="http://www.w3.org/2000/svg">
<path d="M11.8686 4.97388C7.44298 4.97388 3.84248 8.57442 3.84248 13C3.84248 17.4256 7.44302 21.0261 11.8686 21.0261C16.2942 21.0261 19.8948 17.4256 19.8948 13C19.8948 8.57442 16.2943 4.97388 11.8686 4.97388ZM11.8686 19.9394C8.0422 19.9394 4.9292 16.8264 4.9292 13C4.9292 9.17359 8.0422 6.0606 11.8686 6.0606C15.695 6.0606 18.808 9.17359 18.808 13C18.808 16.8264 15.695 19.9394 11.8686 19.9394Z" fill="black"/>
<path d="M1.71944 12.4567H0.54336C0.243311 12.4567 0 12.7 0 13C0 13.3001 0.243311 13.5434 0.54336 13.5434H1.71949C2.01954 13.5434 2.2628 13.3001 2.2628 13C2.26285 12.7 2.01954 12.4567 1.71944 12.4567Z" fill="black"/>
<path d="M23.194 12.4567H22.0179C21.7178 12.4567 21.4745 12.7 21.4745 13C21.4745 13.3001 21.7178 13.5434 22.0179 13.5434H23.194C23.494 13.5434 23.7373 13.3001 23.7373 13C23.7373 12.7 23.4941 12.4567 23.194 12.4567Z" fill="black"/>
<path d="M7.26464 3.93887L6.6766 2.92031C6.52656 2.66045 6.19438 2.57134 5.93437 2.72144C5.67445 2.87153 5.58539 3.20381 5.73549 3.46367L6.32353 4.48223C6.42421 4.65655 6.60678 4.75401 6.79462 4.75401C6.88676 4.75401 6.98017 4.73047 7.06576 4.68111C7.32568 4.53111 7.41474 4.19878 7.26464 3.93887Z" fill="black"/>
<path d="M18.0018 22.5364L17.4138 21.5178C17.2637 21.258 16.9316 21.1689 16.6716 21.3189C16.4117 21.469 16.3226 21.8013 16.4727 22.0612L17.0607 23.0797C17.1614 23.254 17.344 23.3515 17.5318 23.3515C17.624 23.3515 17.7174 23.328 17.803 23.2786C18.0629 23.1286 18.1519 22.7963 18.0018 22.5364Z" fill="black"/>
<path d="M11.8686 0.5C11.5686 0.5 11.3253 0.743311 11.3253 1.04336V3.48213C11.3253 3.78218 11.5686 4.0255 11.8686 4.0255C12.1687 4.0255 12.412 3.78218 12.412 3.48213V1.04336C12.412 0.743311 12.1687 0.5 11.8686 0.5Z" fill="black"/>
<path d="M11.8686 21.9745C11.5686 21.9745 11.3253 22.2178 11.3253 22.5178V24.9566C11.3253 25.2567 11.5686 25.5 11.8686 25.5C12.1687 25.5 12.412 25.2567 12.412 24.9566V22.5178C12.412 22.2178 12.1688 21.9745 11.8686 21.9745Z" fill="black"/>
<path d="M4.09649 17.4873C3.94644 17.2275 3.61411 17.1383 3.35425 17.2884L1.24219 18.5078C0.982273 18.6579 0.893211 18.9901 1.04331 19.25C1.14399 19.4243 1.32656 19.5218 1.5144 19.5218C1.60654 19.5218 1.7 19.4982 1.78555 19.4489L3.89766 18.2295C4.15752 18.0794 4.24659 17.7472 4.09649 17.4873Z" fill="black"/>
<path d="M22.694 6.75C22.5439 6.49024 22.2116 6.40103 21.9517 6.55113L19.8397 7.77051C19.5798 7.92061 19.4907 8.25289 19.6408 8.51275C19.7414 8.68707 19.9241 8.78453 20.1119 8.78453C20.204 8.78453 20.2975 8.76099 20.383 8.71163L22.4951 7.49224C22.755 7.34219 22.8441 7.00992 22.694 6.75Z" fill="black"/>
<path d="M3.89766 7.77051L1.78559 6.55108C1.52563 6.40103 1.1934 6.49004 1.04335 6.74995C0.893257 7.00987 0.982319 7.34219 1.24223 7.49224L3.3543 8.71163C3.43989 8.76104 3.5333 8.78453 3.62544 8.78453C3.81323 8.78453 3.99585 8.68707 4.09653 8.51275C4.24658 8.25289 4.15752 7.92061 3.89766 7.77051Z" fill="black"/>
<path d="M22.4952 18.5077L20.3831 17.2884C20.1231 17.1383 19.7909 17.2274 19.6409 17.4872C19.4908 17.7472 19.5798 18.0794 19.8397 18.2295L21.9518 19.4489C22.0374 19.4983 22.1308 19.5218 22.2229 19.5218C22.4107 19.5218 22.5933 19.4243 22.694 19.25C22.8441 18.9901 22.755 18.6578 22.4952 18.5077Z" fill="black"/>
<path d="M7.06576 21.319C6.8058 21.1689 6.47348 21.2579 6.32353 21.5178L5.73549 22.5364C5.58539 22.7963 5.67445 23.1286 5.93437 23.2786C6.01996 23.328 6.11337 23.3515 6.20551 23.3515C6.3933 23.3515 6.57597 23.2541 6.6766 23.0797L7.26464 22.0612C7.41474 21.8013 7.32568 21.469 7.06576 21.319Z" fill="black"/>
<path d="M17.803 2.72144C17.543 2.57134 17.2107 2.66045 17.0607 2.92031L16.4727 3.93887C16.3226 4.19878 16.4117 4.53116 16.6716 4.68111C16.7572 4.73052 16.8506 4.75401 16.9427 4.75401C17.1305 4.75401 17.3132 4.65655 17.4138 4.48223L18.0018 3.46367C18.1519 3.20376 18.0629 2.87149 17.803 2.72144Z" fill="black"/>
<path d="M10.2745 11.5649C9.9711 10.9055 9.30591 10.4795 8.57984 10.4795C7.8542 10.4795 7.18926 10.9055 6.88579 11.5648C6.76025 11.8375 6.87959 12.1601 7.15215 12.2857C7.42475 12.4111 7.74746 12.2919 7.873 12.0193C7.99966 11.7442 8.2771 11.5663 8.57984 11.5663C8.88291 11.5663 9.1606 11.7441 9.28726 12.0192C9.37886 12.2182 9.57559 12.3356 9.7812 12.3355C9.85728 12.3355 9.93448 12.3196 10.0081 12.2856C10.2807 12.1602 10.4 11.8376 10.2745 11.5649Z" fill="black"/>
<path d="M16.8514 11.5649C16.548 10.9056 15.8827 10.4796 15.1568 10.4796C14.4311 10.4796 13.7661 10.9056 13.4628 11.5649C13.3373 11.8376 13.4566 12.1602 13.7292 12.2857C13.8028 12.3195 13.88 12.3356 13.956 12.3356C14.1616 12.3356 14.3583 12.2184 14.45 12.0193C14.5766 11.7442 14.854 11.5664 15.1568 11.5664C15.4599 11.5664 15.7376 11.7442 15.8642 12.0194C15.9898 12.292 16.3125 12.4112 16.5851 12.2858C16.8577 12.1602 16.977 11.8376 16.8514 11.5649Z" fill="black"/>
<path d="M13.6653 14.3506C13.3765 14.2688 13.0762 14.4362 12.9941 14.7249C12.8521 15.225 12.3893 15.5743 11.8686 15.5743C11.348 15.5743 10.8851 15.225 10.7431 14.7249C10.6611 14.4362 10.3607 14.2687 10.0719 14.3506C9.78327 14.4325 9.61574 14.733 9.69763 15.0217C9.9717 15.987 10.8645 16.6611 11.8686 16.6611C12.8727 16.6611 13.7655 15.987 14.0395 15.0217C14.1216 14.7331 13.954 14.4325 13.6653 14.3506Z" fill="black"/>
</svg>
