<svg width="25" height="26" viewBox="0 0 25 26" fill="none" xmlns="http://www.w3.org/2000/svg">
<path d="M23.0571 10.3492C23.5097 9.90796 23.6696 9.26036 23.4742 8.65914C23.2789 8.05791 22.7689 7.62798 22.1433 7.53711L16.6731 6.74224C16.5657 6.72666 16.4729 6.65923 16.4249 6.56187L13.9785 1.60508C13.6988 1.03818 13.1323 0.686035 12.5001 0.686035C11.8679 0.686035 11.3014 1.03818 11.0217 1.60508L8.57536 6.56192C8.52726 6.65923 8.43449 6.72666 8.32706 6.74229L2.85694 7.53711C2.23136 7.62798 1.72144 8.05791 1.52603 8.65914C1.33062 9.26036 1.49049 9.90796 1.94322 10.3492L5.90148 14.2076C5.97916 14.2834 6.01466 14.3925 5.9963 14.4995L5.06188 19.9475C4.95504 20.5706 5.20631 21.1884 5.71774 21.56C6.22916 21.9317 6.89459 21.9797 7.45406 21.6856L12.3467 19.1134C12.4428 19.0629 12.5575 19.0629 12.6536 19.1134L17.5463 21.6856C17.7897 21.8135 18.053 21.8768 18.3151 21.8767C18.6554 21.8767 18.9936 21.7701 19.2825 21.56C19.7939 21.1883 20.0452 20.5705 19.9383 19.9475L19.0039 14.4994C18.9856 14.3924 19.0211 14.2833 19.0987 14.2075L23.0571 10.3492ZM17.7041 14.7225L18.6385 20.1706C18.6697 20.3529 18.5572 20.4569 18.5073 20.4931C18.4574 20.5292 18.3237 20.6043 18.1601 20.5181L13.2674 17.9459C13.0272 17.8197 12.7637 17.7565 12.5002 17.7565C12.2367 17.7565 11.9732 17.8197 11.733 17.9459L6.84039 20.518C6.67662 20.6041 6.54298 20.5292 6.49313 20.493C6.44327 20.4568 6.33068 20.3528 6.36197 20.1705L7.2964 14.7225C7.38815 14.1876 7.21095 13.642 6.82223 13.2632L2.86397 9.40484C2.7315 9.27564 2.76148 9.1254 2.78058 9.0668C2.79957 9.00816 2.86368 8.86895 3.04674 8.84239L8.51681 8.04751C9.05387 7.96949 9.51798 7.63238 9.75822 7.14561L12.2046 2.18877C12.2864 2.0229 12.4386 2.00498 12.5003 2.00498C12.5618 2.00498 12.714 2.02285 12.7959 2.18877V2.18882L15.2423 7.14566C15.4824 7.63243 15.9465 7.96954 16.4836 8.04756L21.9537 8.84244C22.1368 8.869 22.2008 9.00821 22.2199 9.06685C22.2389 9.12549 22.269 9.27579 22.1364 9.40489L18.1782 13.2632C17.7895 13.642 17.6123 14.1876 17.7041 14.7225Z" fill="black"/>
<path d="M20.2042 1.60474C19.9095 1.39068 19.4972 1.45601 19.2831 1.75064L18.5831 2.71411C18.369 3.00874 18.4343 3.42119 18.729 3.63526C18.8461 3.72027 18.9817 3.76123 19.1161 3.76123C19.32 3.76123 19.5211 3.66695 19.6501 3.48941L20.3501 2.52593C20.5642 2.23125 20.4989 1.8188 20.2042 1.60474Z" fill="black"/>
<path d="M6.41406 2.7102L5.71401 1.74672C5.5 1.45219 5.0876 1.38686 4.79287 1.60082C4.49824 1.81488 4.43291 2.22734 4.64697 2.52197L5.34702 3.48544C5.47607 3.66313 5.67715 3.75737 5.88115 3.75737C6.01557 3.75737 6.15122 3.7164 6.26821 3.63134C6.56284 3.41733 6.62817 3.00488 6.41406 2.7102Z" fill="black"/>
<path d="M2.41952 15.4819C2.30697 15.1356 1.93495 14.946 1.58852 15.0585L0.45585 15.4266C0.109414 15.5391 -0.080088 15.9112 0.0324609 16.2576C0.122988 16.5363 0.381533 16.7135 0.659512 16.7135C0.727041 16.7135 0.795743 16.703 0.863467 16.681L1.99613 16.3129C2.34252 16.2004 2.53207 15.8283 2.41952 15.4819Z" fill="black"/>
<path d="M12.5003 22.804C12.136 22.804 11.8408 23.0993 11.8408 23.4635V24.6545C11.8408 25.0187 12.136 25.314 12.5003 25.314C12.8645 25.314 13.1597 25.0187 13.1597 24.6545V23.4635C13.1597 23.0992 12.8645 22.804 12.5003 22.804Z" fill="black"/>
<path d="M24.5442 15.4275L23.4115 15.0594C23.0652 14.947 22.693 15.1364 22.5805 15.4829C22.4679 15.8293 22.6574 16.2013 23.0039 16.3139L24.1365 16.6819C24.2043 16.7039 24.2729 16.7144 24.3404 16.7144C24.6185 16.7144 24.877 16.5372 24.9675 16.2585C25.0801 15.9121 24.8905 15.54 24.5442 15.4275Z" fill="black"/>
</svg>
