<svg width="25" height="26" viewBox="0 0 25 26" fill="none" xmlns="http://www.w3.org/2000/svg">
<path d="M25 4.88208C25 2.46577 23.0342 0.5 20.6179 0.5C19.344 0.5 18.1957 1.04678 17.3943 1.91753C15.8022 1.19858 14.1023 0.833301 12.3334 0.833301C5.53272 0.833301 0 6.36606 0 13.1666C0 19.9672 5.53272 25.5 12.3334 25.5C19.134 25.5 24.6667 19.9673 24.6667 13.1666C24.6667 11.3977 24.3015 9.69775 23.5824 8.10566C24.4532 7.30425 25 6.15601 25 4.88208ZM20.6179 1.73335C22.3542 1.73335 23.7667 3.1459 23.7667 4.88213C23.7667 6.61836 22.3542 8.03091 20.6179 8.03091C18.8817 8.03091 17.4691 6.61836 17.4691 4.88213C17.4692 3.14585 18.8817 1.73335 20.6179 1.73335ZM12.3334 24.2667C6.21279 24.2667 1.23335 19.2872 1.23335 13.1666C1.23335 7.04609 6.21279 2.06665 12.3334 2.06665C13.8508 2.06665 15.3115 2.36431 16.6851 2.95195C16.3979 3.53472 16.2359 4.18975 16.2359 4.88213C16.2359 7.29844 18.2017 9.26421 20.618 9.26421C21.3104 9.26421 21.9654 9.10215 22.5481 8.81504C23.1357 10.1885 23.4333 11.6492 23.4333 13.1667C23.4333 19.2872 18.4539 24.2667 12.3334 24.2667Z" fill="black"/>
<path d="M22.2554 4.26544H21.2354V3.24547C21.2354 2.90489 20.9593 2.62881 20.6188 2.62881C20.2782 2.62881 20.0021 2.90489 20.0021 3.24547V4.26544H18.9821C18.6416 4.26544 18.3655 4.54151 18.3655 4.88209C18.3655 5.22261 18.6416 5.49874 18.9821 5.49874H20.0021V6.51871C20.0021 6.85928 20.2782 7.13536 20.6188 7.13536C20.9593 7.13536 21.2354 6.85928 21.2354 6.51871V5.49874H22.2554C22.5959 5.49874 22.872 5.22266 22.872 4.88209C22.872 4.54151 22.5959 4.26544 22.2554 4.26544Z" fill="black"/>
<path d="M16.1214 15.3738C16.1075 15.3727 14.6008 15.4257 14.1689 13.8458C14.4505 13.6307 14.7115 13.3651 14.944 13.0502C15.4432 12.3745 15.7688 11.5321 15.8922 10.6212C15.9276 10.5792 15.9572 10.5314 15.9796 10.4782C16.1935 9.96893 16.3019 9.42528 16.3019 8.86239C16.3019 6.69501 14.6609 4.93168 12.6437 4.93168C12.1259 4.93168 11.6233 5.04823 11.1481 5.27831C10.9728 5.29403 10.801 5.32597 10.6359 5.37377C8.94563 5.8621 7.98884 7.89989 8.50305 9.91635C8.55466 10.1187 8.67961 10.5065 8.78112 10.6469C8.97336 12.0197 9.61604 13.1666 10.4973 13.8402C10.0581 15.4463 8.55774 15.3728 8.54406 15.3738C7.08718 15.4206 5.91618 16.6196 5.91618 18.0876V19.8614C5.91618 20.5275 6.45813 21.0694 7.12424 21.0694H17.5405C18.2066 21.0694 18.7485 20.5275 18.7485 19.8614V18.0876C18.7484 16.6197 17.5779 15.421 16.1214 15.3738ZM10.9439 6.44017C11.0642 6.40541 11.1916 6.3848 11.3227 6.3788C11.404 6.37509 11.4836 6.35355 11.5557 6.31571C11.9018 6.13392 12.2678 6.04174 12.6437 6.04174C13.9744 6.04174 15.0695 7.17689 15.1817 8.6183C14.9049 8.44413 14.5778 8.34296 14.2272 8.34296H11.7157C11.6068 8.34296 11.5035 8.30888 11.4171 8.24428C11.343 8.18895 11.2858 8.11478 11.2517 8.02982C11.1491 7.77401 10.8958 7.61376 10.6203 7.63129C10.3441 7.64882 10.1116 7.84057 10.0418 8.10858C9.9363 8.51386 9.75007 8.89447 9.49953 9.22821C9.33327 7.9349 9.93088 6.73285 10.9439 6.44017ZM9.87605 10.4621C10.2673 10.0968 10.5894 9.6622 10.8224 9.1828C11.0871 9.35985 11.3942 9.45297 11.7157 9.45297H14.2272C14.4929 9.45297 14.7235 9.60463 14.838 9.82567C14.8287 11.2816 14.2107 12.5325 13.3314 13.0812C13.3034 13.0946 12.9024 13.3784 12.3345 13.3784C11.1453 13.3784 10.0998 12.1169 9.87605 10.4621ZM13.9731 15.641C13.5009 15.9844 12.928 16.1744 12.3346 16.1744C11.7401 16.1744 11.1664 15.9837 10.6938 15.6394C11.0605 15.2925 11.3422 14.8559 11.503 14.364C11.7703 14.4453 12.0487 14.4883 12.3345 14.4883C12.6176 14.4883 12.8946 14.4458 13.1624 14.3657C13.3236 14.8578 13.6059 15.2942 13.9731 15.641ZM17.6384 19.8612C17.6384 19.9153 17.5944 19.9593 17.5403 19.9593H7.12409C7.06999 19.9593 7.02605 19.9153 7.02605 19.8612V18.0875C7.02605 17.2019 7.74651 16.4814 8.6321 16.4814C8.64704 16.4814 9.17097 16.4727 9.70979 16.2671C10.4235 16.9179 11.3592 17.2844 12.3346 17.2844C13.3093 17.2844 14.2447 16.9182 14.9583 16.2682C15.5079 16.4919 16.0174 16.4815 16.0324 16.4815C16.9179 16.4815 17.6384 17.2019 17.6384 18.0875V19.8612H17.6384Z" fill="black"/>
</svg>
