<svg width="23" height="23" viewBox="0 0 23 23" fill="none" xmlns="http://www.w3.org/2000/svg">
<path d="M9.68181 1.5C8.60736 1.5 7.54343 1.71163 6.55077 2.1228C5.55811 2.53398 4.65615 3.13665 3.8964 3.8964C3.13665 4.65615 2.53398 5.55811 2.1228 6.55077C1.71163 7.54343 1.5 8.60736 1.5 9.68181C1.5 10.7563 1.71163 11.8202 2.1228 12.8129C2.53398 13.8055 3.13665 14.7075 3.8964 15.4672C4.65615 16.227 5.55811 16.8297 6.55077 17.2408C7.54343 17.652 8.60736 17.8636 9.68181 17.8636C10.7563 17.8636 11.8202 17.652 12.8129 17.2408C13.8055 16.8297 14.7075 16.227 15.4672 15.4672C16.227 14.7075 16.8297 13.8055 17.2408 12.8129C17.652 11.8202 17.8636 10.7563 17.8636 9.68181C17.8636 8.60736 17.652 7.54343 17.2408 6.55077C16.8297 5.55811 16.227 4.65615 15.4672 3.8964C14.7075 3.13665 13.8055 2.53398 12.8129 2.1228C11.8202 1.71163 10.7563 1.5 9.68181 1.5V1.5Z" stroke="#3E3E3E" stroke-opacity="0.5" stroke-width="2" stroke-miterlimit="10"/>
<path d="M21.5 21.5001L15.5336 15.5337" stroke="#3E3E3E" stroke-opacity="0.5" stroke-width="2" stroke-miterlimit="10" stroke-linecap="round"/>
</svg>
