<svg width="16" height="16" viewBox="0 0 16 16" fill="none" xmlns="http://www.w3.org/2000/svg">
<path d="M15.5324 0.5H8.96965C8.84534 0.5 8.72611 0.549385 8.63821 0.63729C8.5503 0.725196 8.50092 0.844421 8.50092 0.968738C8.50092 1.09305 8.5503 1.21228 8.63821 1.30019C8.72611 1.38809 8.84534 1.43748 8.96965 1.43748H15.0636V14.5625H8.96965C8.84534 14.5625 8.72611 14.6119 8.63821 14.6998C8.5503 14.7877 8.50092 14.9069 8.50092 15.0313C8.50092 15.1556 8.5503 15.2748 8.63821 15.3627C8.72611 15.4506 8.84534 15.5 8.96965 15.5H15.5324C15.6564 15.5 15.7753 15.4507 15.863 15.3631C15.9507 15.2754 15.9999 15.1564 15.9999 15.0324V0.967569C15.9999 0.843562 15.9507 0.724634 15.863 0.636948C15.7753 0.549262 15.6564 0.5 15.5324 0.5V0.5Z" fill="#3E3E3E"/>
<path d="M8.68537 10.9533C8.5974 11.0424 8.54808 11.1626 8.54808 11.2878C8.54808 11.413 8.5974 11.5332 8.68537 11.6223C8.7286 11.6663 8.78015 11.7012 8.83701 11.725C8.89387 11.7489 8.95491 11.7611 9.01657 11.7611C9.07822 11.7611 9.13926 11.7489 9.19613 11.725C9.25299 11.7012 9.30454 11.6663 9.34776 11.6223L12.5818 8.34152C12.669 8.25184 12.7177 8.1317 12.7177 8.00662C12.7177 7.88155 12.669 7.7614 12.5818 7.67173L9.34776 4.39095C9.30448 4.34708 9.25292 4.31224 9.19606 4.28847C9.13921 4.26469 9.07819 4.25245 9.01657 4.25245C8.95494 4.25245 8.89393 4.26469 8.83707 4.28847C8.78022 4.31224 8.72865 4.34708 8.68537 4.39095C8.59738 4.48013 8.54804 4.60037 8.54804 4.72565C8.54804 4.85094 8.59738 4.97118 8.68537 5.06035L11.123 7.53301H1.46884C1.34328 7.53301 1.22286 7.58289 1.13408 7.67167C1.0453 7.76046 0.995422 7.88087 0.995422 8.00643C0.995422 8.13199 1.0453 8.2524 1.13408 8.34118C1.22286 8.42996 1.34328 8.47984 1.46884 8.47984H11.123L8.68537 10.9533Z" fill="#3E3E3E"/>
</svg>
