<svg width="13" height="8" viewBox="0 0 13 8" fill="none" xmlns="http://www.w3.org/2000/svg">
<path d="M8.68537 6.95328C8.5974 7.04239 8.54808 7.16257 8.54808 7.28779C8.54808 7.413 8.5974 7.53318 8.68537 7.62229C8.7286 7.66626 8.78015 7.70118 8.83701 7.72502C8.89387 7.74885 8.95491 7.76113 9.01657 7.76113C9.07822 7.76113 9.13926 7.74885 9.19613 7.72502C9.25299 7.70118 9.30454 7.66626 9.34776 7.62229L12.5818 4.34152C12.669 4.25184 12.7177 4.1317 12.7177 4.00662C12.7177 3.88155 12.669 3.7614 12.5818 3.67173L9.34776 0.390952C9.30448 0.34708 9.25292 0.312245 9.19606 0.288468C9.13921 0.264691 9.07819 0.252447 9.01657 0.252447C8.95494 0.252447 8.89393 0.264691 8.83707 0.288468C8.78022 0.312245 8.72865 0.34708 8.68537 0.390952C8.59738 0.480129 8.54804 0.600371 8.54804 0.725653C8.54804 0.850935 8.59738 0.971178 8.68537 1.06035L11.123 3.53301H1.46884C1.34328 3.53301 1.22286 3.58289 1.13408 3.67167C1.0453 3.76046 0.995422 3.88087 0.995422 4.00643C0.995422 4.13199 1.0453 4.2524 1.13408 4.34118C1.22286 4.42996 1.34328 4.47984 1.46884 4.47984H11.123L8.68537 6.95328Z" fill="#3E3E3E"/>
</svg>
